<svg version="1.1" xmlns="http://www.w3.org/2000/svg" xmlns:xlink="http://www.w3.org/1999/xlink" x="0px" y="0px" viewBox="-47 170.9 500 500" style="enable-background:new -47 170.9 500 500;" xml:space="preserve">

	<g id="icon-mask" fill="#FFFFFF">
		<path id="themer" d="M415.6,224.9v-3.6c0-13.9-4.7-25.8-14.1-35.7c-9.4-9.8-20.7-14.7-33.9-14.7H1.1c-13.3,0-24.6,4.9-34,14.7c-9.4,9.9-14,21.8-14,35.7v20.4c0,13.9,4.7,25.8,14,35.6c9.4,9.9,20.8,14.8,34,14.8h366.4c13.3,0,24.6-4.9,33.9-14.8c9.4-9.8,14.1-21.7,14.1-35.6v-0.9h22.1v59.9l-253.9,17.5c-2,0.1-3.7,1-5,2.5c-1.4,1.5-2.1,3.4-2.1,5.5v60.2h-42V426h11.9v231.7c0.3,8.5,4.5,12.9,12.6,13.2h50.2c8.1-0.3,12.3-4.7,12.6-13.2V426h11.9v-39.6h-42v-52.8l253.9-17.4c2-0.1,3.7-1,5-2.5c1.4-1.5,2.1-3.4,2.1-5.5v-75.4c0-2.2-0.7-4.1-2.2-5.6c-1.5-1.6-3.3-2.3-5.4-2.3H415.6 M184.3,619c4.6,0,8.5,1.7,11.6,5c3.2,3.4,4.9,7.5,4.9,12.3s-1.6,8.9-4.9,12.2c-3.2,3.4-7.1,5.1-11.6,5.1c-4.6,0-8.5-1.7-11.7-5.1c-3.2-3.3-4.8-7.4-4.8-12.2c0-4.8,1.6-8.9,4.8-12.3C175.8,620.6,179.7,619,184.3,619z"/>
	</g>

</svg>
