<svg version="1.1" xmlns="http://www.w3.org/2000/svg" xmlns:xlink="http://www.w3.org/1999/xlink" x="0px" y="0px" viewBox="-47 170.9 500 500" style="enable-background:new -47 170.9 500 500;" xml:space="preserve">

	<g id="icon-mask" fill="#FFFFFF">
				
		<path id="themer" d="M383.3,208.2h-32.6v-2.3c0-19.5-15.8-35.3-35.2-35.3H55.6c-19.5,0-35.2,15.8-35.2,35.3v19.2 c0,19.5,15.8,35.3,35.2,35.3h259.9c19.5,0,35.2-15.8,35.2-35.3v-2.5H369c2.8,0,5.1,2.3,5.1,5.1v76.5c0,2.8-2.1,6.2-4.6,7.4 l-184.3,76.3c-2.5,1.3-4.6,4.6-4.6,7.4v41h-34.9V471h8.6v185.6c0,7.7,5.7,14,12.9,14h40.4c7.1,0,13-6.2,13-14V471.1h8.6v-34.8H195 v-32.2c0-2.8,2.1-6.2,4.6-7.4l184.3-76.3c2.5-1.3,4.6-4.6,4.6-7.4v-99.7C388.4,210.5,386.1,208.2,383.3,208.2z M203.1,634.7 c0,9-6.7,16.2-15,16.2c-8.3,0-15-7.3-15-16.2c0-9,6.7-16.2,15-16.2C196.3,618.5,203.1,625.7,203.1,634.7z"/>

	</g>

</svg>