<svg version="1.1" xmlns="http://www.w3.org/2000/svg" xmlns:xlink="http://www.w3.org/1999/xlink" x="0px" y="0px" viewBox="-47 170.9 500 500" style="enable-background:new -47 170.9 500 500;" xml:space="preserve">

	<path id="background" fill="#FFC83B" d="M453.1,238.5c0-37.3-30.2-67.6-67.6-67.6H20.6c-37.3,0-67.7,30.2-67.7,67.6v364.8 c0,37.3,30.2,67.6,67.6,67.6h364.8c37.3,0,67.6-30.2,67.6-67.6V238.5H453.1z"/>

	<g id="icon" fill="#FFFFFF">
		
		<path id="themer" d="M332.8,268h-23.4v-1.7c0-14-11.4-25.4-25.4-25.4H96.9c-14,0-25.4,11.4-25.4,25.4v13.8 c0,14,11.4,25.4,25.4,25.4H284c14,0,25.4-11.4,25.4-25.4v-1.8h13.1c2,0,3.7,1.7,3.7,3.7v55.1c0,2-1.5,4.4-3.3,5.4l-132.7,54.9 c-1.8,0.9-3.3,3.3-3.3,5.4v29.5h-25.1v25h6.2v133.7c0,5.6,4.1,10.1,9.3,10.1h29.1c5.1,0,9.3-4.5,9.3-10.1V457.2h6.2v-25h-24.7V409 c0-2,1.5-4.4,3.3-5.4l132.7-54.9c1.8-0.9,3.3-3.3,3.3-5.4v-71.7C336.5,269.6,334.8,268,332.8,268z M203,575 c0,6.5-4.8,11.7-10.8,11.7c-6,0-10.8-5.2-10.8-11.7c0-6.5,4.8-11.7,10.8-11.7C198.2,563.3,203,568.6,203,575z"/>

	</g>
	
</svg>