<svg version="1.1" xmlns="http://www.w3.org/2000/svg" xmlns:xlink="http://www.w3.org/1999/xlink" x="0px" y="0px" viewBox="-47 170.9 500 500" style="enable-background:new -47 170.9 500 500;" xml:space="preserve">

	<path id="background" fill="#FFC83B" d="M453.1,238.5c0-37.3-30.2-67.6-67.6-67.6H20.6c-37.3,0-67.7,30.2-67.7,67.6v364.8 c0,37.3,30.2,67.6,67.6,67.6h364.8c37.3,0,67.6-30.2,67.6-67.6V238.5H453.1z"/>

	<g id="icon" fill="#FFFFFF">		
		<path id="themer" d="M356.4,281.3v-2.6c0-10-3.4-18.5-10.2-25.6c-6.7-7-14.9-10.5-24.5-10.5H57.7c-9.6,0-17.7,3.5-24.5,10.5c-6.7,7.1-10.1,15.6-10.1,25.6v14.6c0,10,3.4,18.5,10.1,25.5c6.8,7.1,15,10.6,24.5,10.6h264.1c9.6,0,17.7-3.5,24.5-10.6c6.8-7,10.2-15.5,10.2-25.5v-0.6h16v42.9l-183,12.5c-1.4,0.1-2.6,0.7-3.6,1.8c-1,1.1-1.5,2.4-1.5,3.9V397H154v28.4h8.6v166.1c0.2,6.1,3.2,9.2,9.1,9.4h36.2c5.8-0.2,8.9-3.4,9.1-9.4V425.4h8.6V397h-30.2v-37.8l183-12.5c1.4-0.1,2.6-0.7,3.6-1.8c1-1.1,1.5-2.4,1.5-3.9v-54c0-1.6-0.5-2.9-1.6-4c-1.1-1.1-2.4-1.7-3.9-1.7H356.4 M189.7,563.7c3.3,0,6.1,1.2,8.4,3.6c2.3,2.4,3.5,5.4,3.5,8.8s-1.2,6.3-3.5,8.7c-2.3,2.4-5.1,3.7-8.4,3.7s-6.1-1.2-8.5-3.7c-2.3-2.4-3.5-5.3-3.5-8.7c0-3.4,1.2-6.4,3.5-8.8C183.6,564.9,186.4,563.7,189.7,563.7z"/>
	</g>

</svg>
